# xmcd
#
# Track frame offsets: 
#        150
#        20250
#        36187
#        48161
#        70342
#        92292
#        105191
#        119211
#        147035
#        161381
#        188078
#        211940
#
# Disc length: 3128 seconds
#
# Revision: 0
# Processed by: cddbd v1.5.2PL0 Copyright (c) Steve Scherf et al.
# Submitted via: ExactAudioCopy v0.99pb4
#
DISCID=940c360c
DTITLE=James Brown - James Brown 3 CD Playlist Plus - Disc 2
DYEAR=2008
DGENRE=Soul
TTITLE0=There Was A Time
TTITLE1=I Can't Stand Myself (When You Touch Me), Pt. 1
TTITLE2=I Got The Feelin'
TTITLE3=Licking Stick-Licking Stick, Pt. 1 and 2
TTITLE4=Say It Loud-I'm Black And I'm Proud Pts. 1 and 2
TTITLE5=Give It Up Or Turnit A Loose
TTITLE6=I Don't Want Nobody To Give Me Nothing (Open Up The Door, I'll
TTITLE6=Get It Myself)
TTITLE7=Mother Popcorn, Pts. 1 and 2
TTITLE8=Ain't It Funky Now
TTITLE9=It's A New Day
TTITLE10=Get Up I Feel Like Being A Sex Machine, Pts. 1 and 2
TTITLE11=Super Bad, Pts. 1 and 2
EXTD=
EXTT0=
EXTT1=
EXTT2=
EXTT3=
EXTT4=
EXTT5=
EXTT6=
EXTT7=
EXTT8=
EXTT9=
EXTT10=
EXTT11=
PLAYORDER=
